<svg width="195" height="190" viewBox="0 0 195 190" fill="none" xmlns="http://www.w3.org/2000/svg">
<g clip-path="url(#clip0_5_4)">
<path d="M74.2558 110.689C73.3104 109.696 72.4342 108.641 71.6331 107.529C69.6898 104.874 67.8887 102.094 66.1192 99.2974L57.4297 85.3152C54.1119 80.4174 52.3582 76.0569 52.3582 72.5495C52.3582 69.0421 54.3331 64.4604 58.2987 63.465C57.7448 55.0875 57.6288 46.6867 57.9511 38.297C58.1283 36.3479 58.4772 34.4182 58.9938 32.5304C61.4162 24.6004 66.7201 17.8649 73.8608 13.6504C76.3818 12.0562 79.0807 10.7624 81.9025 9.79546C86.974 7.89957 84.5252 0.189608 90.0549 1.9183e-05C103.231 -0.347561 124.813 10.854 133.123 19.9385C138.477 25.8389 141.518 33.4754 141.686 41.4411L141.165 64.334C142.311 64.6198 143.357 65.2119 144.192 66.0468C145.027 66.8818 145.619 67.9281 145.905 69.0737C146.6 71.8701 145.905 75.7093 143.456 81.1442C143.456 81.318 143.282 81.318 143.282 81.4918L133.297 97.9545C131.022 101.683 128.684 105.459 126.061 109.014C122.901 113.169 120.389 112.426 123.043 116.408C126.483 120.933 130.98 124.546 136.141 126.93C135.507 127.001 134.878 127.117 134.261 127.278V127.278C132.744 127.644 131.318 128.315 130.069 129.249C128.82 130.183 127.773 131.362 126.993 132.712L123.407 138.922C122.64 140.272 122.141 141.758 121.937 143.298V143.298C121.749 144.798 121.846 146.32 122.222 147.785V148.069C122.622 149.54 123.303 150.919 124.228 152.13L124.323 152.272C124.07 152.43 123.818 152.604 123.565 152.793C122.274 153.75 121.198 154.966 120.405 156.364C119.602 157.746 119.091 159.279 118.904 160.866C118.734 162.379 118.841 163.911 119.22 165.385V165.385L121.037 172.289C121.18 172.834 121.376 173.363 121.621 173.869C122.025 174.846 122.556 175.765 123.201 176.602C123.359 176.808 123.533 176.997 123.707 177.187C123.881 177.377 124.292 177.787 124.592 178.072H-1.52588e-05C-1.52588e-05 125.935 56.0868 142.445 75.1721 116.218C77.3682 112.932 76.752 113.248 74.3032 110.61L74.2558 110.689ZM192.338 148.101C192.239 147.704 192.06 147.332 191.813 147.006C191.566 146.68 191.256 146.408 190.901 146.205C190.551 145.999 190.164 145.867 189.761 145.818C189.359 145.769 188.951 145.804 188.562 145.921L184.028 147.121C183.533 146.173 182.973 145.26 182.353 144.388C181.727 143.513 181.052 142.675 180.331 141.876L182.922 137.452C183.132 137.106 183.27 136.721 183.327 136.32C183.384 135.919 183.359 135.511 183.254 135.12C183.15 134.728 182.967 134.362 182.717 134.044C182.467 133.725 182.155 133.46 181.8 133.265L176.271 130.106C175.927 129.901 175.546 129.768 175.149 129.714C174.753 129.659 174.35 129.685 173.964 129.79C173.571 129.889 173.203 130.067 172.882 130.315C172.562 130.562 172.295 130.873 172.1 131.227L169.761 135.256C168.727 134.943 167.671 134.705 166.602 134.545C165.556 134.376 164.5 134.275 163.442 134.245L162.067 129.268C161.982 128.881 161.815 128.515 161.578 128.197C161.341 127.878 161.039 127.613 160.693 127.42C160.342 127.212 159.952 127.077 159.547 127.026C159.142 126.974 158.731 127.006 158.339 127.12L152.224 128.7C151.83 128.799 151.46 128.978 151.137 129.225C150.813 129.472 150.544 129.783 150.344 130.137C150.137 130.495 150.007 130.892 149.963 131.303C149.92 131.714 149.963 132.13 150.091 132.523L151.308 137.057C150.334 137.543 149.399 138.102 148.512 138.732C147.627 139.352 146.783 140.028 145.984 140.754L141.576 138.195C141.23 137.989 140.846 137.855 140.447 137.801C140.048 137.746 139.642 137.773 139.253 137.879C138.858 137.978 138.489 138.158 138.168 138.409C137.847 138.659 137.581 138.974 137.389 139.332L134.229 144.862C134.028 145.204 133.897 145.583 133.846 145.977C133.794 146.37 133.823 146.77 133.929 147.153C134.019 147.549 134.192 147.922 134.437 148.246C134.682 148.57 134.994 148.839 135.351 149.033L139.38 151.371C139.074 152.408 138.836 153.463 138.669 154.531C138.494 155.576 138.389 156.632 138.353 157.691L133.408 159.002C133.015 159.086 132.645 159.253 132.323 159.493C132.001 159.733 131.735 160.04 131.543 160.392C131.338 160.742 131.206 161.129 131.154 161.531C131.102 161.933 131.133 162.341 131.243 162.731L132.823 168.892C132.931 169.279 133.115 169.641 133.365 169.955C133.615 170.27 133.924 170.532 134.277 170.725C134.618 170.936 134.998 171.075 135.394 171.135C135.791 171.195 136.195 171.173 136.583 171.073L141.149 169.825C141.644 170.773 142.204 171.686 142.824 172.558C143.456 173.427 144.135 174.264 144.846 175.07L142.302 179.478C142.095 179.823 141.959 180.207 141.902 180.605C141.845 181.004 141.868 181.411 141.971 181.8C142.072 182.194 142.254 182.563 142.504 182.883C142.754 183.204 143.067 183.47 143.424 183.665L148.954 186.824C149.663 187.206 150.492 187.303 151.27 187.095C152.048 186.886 152.717 186.388 153.141 185.703L155.526 181.69C156.561 182.008 157.617 182.251 158.686 182.416C159.732 182.583 160.787 182.689 161.846 182.732L163.157 187.678C163.246 188.072 163.417 188.444 163.66 188.768C163.902 189.092 164.21 189.361 164.563 189.558C164.908 189.767 165.294 189.9 165.695 189.946C166.096 189.993 166.502 189.952 166.886 189.826L173.063 188.246C173.839 188.014 174.497 187.493 174.899 186.79C175.302 186.088 175.42 185.257 175.228 184.47L173.98 179.92C174.93 179.428 175.843 178.869 176.713 178.245C177.585 177.615 178.423 176.94 179.225 176.223L183.633 178.767C183.98 178.972 184.365 179.106 184.765 179.161C185.165 179.216 185.572 179.19 185.962 179.086C186.352 178.981 186.717 178.8 187.036 178.553C187.355 178.305 187.622 177.997 187.82 177.645L190.98 172.115C191.362 171.406 191.458 170.578 191.25 169.799C191.041 169.021 190.543 168.352 189.858 167.929L185.829 165.606C186.121 164.567 186.353 163.512 186.524 162.446C186.704 161.402 186.809 160.346 186.84 159.287L191.801 157.928C192.193 157.841 192.561 157.673 192.883 157.433C193.204 157.193 193.471 156.888 193.665 156.538C193.874 156.19 194.009 155.802 194.06 155.4C194.112 154.997 194.08 154.589 193.966 154.199L192.386 148.085L192.338 148.101ZM168.861 147.643C170.309 148.48 171.576 149.597 172.589 150.929C173.576 152.21 174.3 153.673 174.721 155.235C175.141 156.797 175.249 158.426 175.038 160.029C174.728 162.501 173.694 164.826 172.067 166.712C170.439 168.598 168.29 169.961 165.891 170.63C164.346 171.039 162.736 171.147 161.151 170.946C159.49 170.728 157.889 170.185 156.438 169.347C154.988 168.51 153.717 167.394 152.698 166.064C150.717 163.478 149.842 160.211 150.265 156.98C150.468 155.32 150.999 153.716 151.826 152.263C152.653 150.809 153.76 149.534 155.084 148.512C156.365 147.525 157.828 146.801 159.39 146.38C160.952 145.96 162.581 145.852 164.184 146.063C165.853 146.272 167.463 146.809 168.924 147.643H168.861Z" fill="#403603"/>
</g>
<defs>
<clipPath id="clip0_5_4">
<rect width="194.139" height="190" fill="white"/>
</clipPath>
</defs>
</svg>
