<svg width="350" height="288" viewBox="0 0 350 288" fill="none" xmlns="http://www.w3.org/2000/svg">
<path d="M348.761 131.005C353.896 145.221 342.628 156.237 323.177 155.005C321.724 205.593 275.78 251.363 201.773 260.727C193.697 277.683 175.344 289.229 154.609 287.297C133.893 285.368 118.676 270.718 114.751 252.685C45.0425 230.11 11.226 177.331 21.536 127.894C3.05712 125.405 -4.93585 112.936 3.13755 100.212C10.6517 88.371 29.6177 80.4852 46.5201 81.3681C72.5882 53.4639 114.847 37.034 157.792 35.1794C159.819 27.6302 172.102 22.7844 185.668 23.9638C199.242 25.1439 210.164 32.0142 210.389 39.7689C252.193 49.0348 290.071 72.555 309.328 104.602C326.562 106.498 343.989 117.797 348.762 131.005M338.418 130.084C335.223 120.514 322.774 112.386 310.129 111.263C297.491 110.142 288.951 116.402 290.901 125.851C292.959 135.821 305.702 145.113 319.621 146.358C320.491 146.436 321.342 146.473 322.17 146.485C334.555 146.641 341.574 139.535 338.419 130.084L338.418 130.084M311.828 152.972C298.166 148.954 286.616 139.95 282.206 130.062L207.944 123.437C204.557 134.28 191.032 142.104 174.714 141.635L168.42 198.75C189.87 202.229 206.599 220.594 206.125 242.876C206.105 243.845 205.973 244.791 205.889 245.746C268.957 235.799 308.756 196.917 311.829 152.973M299.924 104.545C282.608 74.9686 248.022 53.0854 209.277 44.2279C205.922 50.2949 195.5 54.2679 183.205 53.451L178.676 93.0338C194.52 94.8207 207.245 104.444 208.629 116.04L280.326 122.423C279.947 112.693 287.993 105.854 299.924 104.546M192.243 241.601C193.082 224.937 180.455 211.319 163.752 209.793C147.062 208.269 131.559 219.301 128.498 235.737C125.208 253.405 137.47 269.78 156.469 271.542C175.484 273.306 191.34 259.516 192.243 241.601ZM198.49 117.62C198.954 108.405 189.336 100.55 176.767 99.4343C164.207 98.3201 152.973 104.318 151.279 113.413C149.492 123.008 158.959 131.979 172.784 133.217C186.617 134.456 198.001 127.341 198.49 117.619M202.426 39.4974C202.71 33.8751 195.08 28.895 185.189 28.0341C175.302 27.1736 166.676 30.7353 165.643 36.2873C164.565 42.0757 172.12 47.5823 182.773 48.5146C193.432 49.4475 202.13 45.3589 202.425 39.4972M155.619 198.437L163.784 140.018C149.472 136.126 140.118 126.058 140.685 115.314L69.0175 108.924C62.9896 118.956 48.3993 126.71 32.8657 128.119C25.7651 171.362 55.3067 216.313 114.211 237.395C114.354 236.419 114.456 235.444 114.667 234.466C118.956 214.623 136.329 200.537 155.622 198.438M168.965 92.9477L174.844 52.1268C165.812 49.813 159.364 45.0505 157.845 39.7372C118.039 41.7071 79.364 57.0467 55.7202 82.7948C66.58 85.8036 72.9475 93.1001 71.6676 101.811L142.623 108.125C146.775 99.8153 157.062 94.0738 168.965 92.9485M60.2335 105.305C64.291 96.4393 57.4524 88.8521 44.962 87.7438C32.4787 86.6364 18.5974 92.3782 13.3252 101.125C7.76478 110.352 14.0161 119.01 27.7476 120.238C41.4879 121.467 55.9533 114.655 60.2338 105.304" fill="#F8F9FA"/>
<path d="M174.802 202.043L142.381 198.005C136.289 197.246 131.35 201.57 131.35 207.663V240.082C131.35 246.175 136.289 251.729 142.381 252.488L174.802 256.526C180.895 257.285 185.834 252.961 185.834 246.868V214.449C185.834 208.356 180.895 202.802 174.802 202.043Z" fill="#403603"/>
<path d="M176.495 203.929L140.687 199.469C137.146 199.028 134.276 202.25 134.276 206.665C134.276 211.08 137.146 215.016 140.687 215.457L176.495 219.917C180.036 220.358 182.906 217.137 182.906 212.722C182.906 208.307 180.036 204.37 176.495 203.929Z" fill="url(#paint0_linear_2_918)"/>
<path d="M131.354 236.533V240.079C131.354 246.191 136.274 251.724 142.385 252.485L174.806 256.524C180.918 257.285 185.838 252.977 185.838 246.866V243.32C185.838 249.431 180.918 253.739 174.806 252.978L142.385 248.939C136.274 248.178 131.354 242.645 131.354 236.533Z" fill="url(#paint1_linear_2_918)"/>
<path d="M173.687 187.239C173.687 189.25 173.291 191.191 172.522 192.953C171.752 194.715 170.625 196.262 169.203 197.506C167.781 198.751 166.094 199.669 164.236 200.207C162.379 200.745 160.388 200.893 158.377 200.642C156.367 200.392 154.376 199.748 152.519 198.747C150.661 197.746 148.973 196.408 147.552 194.81C146.13 193.211 145.002 191.383 144.233 189.43C143.464 187.476 143.068 185.436 143.068 183.426C143.068 181.415 143.464 179.474 144.233 177.712C145.002 175.95 146.13 174.403 147.552 173.158C148.973 171.914 150.661 170.996 152.519 170.458C154.376 169.92 156.367 169.772 158.377 170.023C160.388 170.273 162.379 170.917 164.236 171.918C166.094 172.919 167.781 174.257 169.203 175.855C170.625 177.454 171.752 179.282 172.522 181.235C173.291 183.189 173.687 185.229 173.687 187.239Z" fill="#403603"/>
<path d="M169.623 180.435C169.623 181.485 169.332 182.488 168.766 183.387C168.201 184.286 167.371 185.064 166.326 185.676C165.281 186.288 164.04 186.722 162.674 186.954C161.308 187.185 159.845 187.21 158.366 187.026C156.888 186.842 155.424 186.453 154.058 185.881C152.693 185.309 151.452 184.566 150.406 183.693C149.361 182.821 148.532 181.837 147.966 180.796C147.4 179.756 147.109 178.681 147.109 177.631C147.109 176.581 147.4 175.578 147.966 174.679C148.532 173.78 149.361 173.002 150.406 172.39C151.452 171.778 152.693 171.344 154.058 171.113C155.424 170.881 156.888 170.857 158.366 171.041C159.845 171.225 161.308 171.614 162.674 172.186C164.04 172.757 165.281 173.501 166.326 174.373C167.371 175.245 168.201 176.23 168.766 177.27C169.332 178.31 169.623 179.386 169.623 180.435Z" fill="url(#paint2_linear_2_918)"/>
<path d="M143.114 182.672C143.101 182.931 143.058 183.188 143.058 183.453C143.058 191.908 149.912 199.616 158.368 200.668C166.823 201.721 173.678 195.721 173.678 187.266C173.678 187.001 173.634 186.734 173.621 186.471C173.196 194.493 166.549 200.111 158.368 199.092C150.187 198.073 143.54 190.799 143.115 182.671L143.114 182.672Z" fill="url(#paint3_linear_2_918)"/>
<path d="M173.687 187.239C173.687 189.25 173.291 191.191 172.522 192.953C171.752 194.715 170.625 196.262 169.203 197.506C167.781 198.751 166.094 199.669 164.236 200.207C162.379 200.745 160.388 200.893 158.377 200.642C156.367 200.392 154.376 199.748 152.519 198.747C150.661 197.746 148.973 196.408 147.552 194.81C146.13 193.211 145.002 191.383 144.233 189.43C143.464 187.476 143.068 185.436 143.068 183.426C143.068 181.415 143.464 179.474 144.233 177.712C145.002 175.95 146.13 174.403 147.552 173.158C148.973 171.914 150.661 170.996 152.519 170.458C154.376 169.92 156.367 169.772 158.377 170.023C160.388 170.273 162.379 170.917 164.236 171.918C166.094 172.919 167.781 174.257 169.203 175.855C170.625 177.454 171.752 179.282 172.522 181.235C173.291 183.189 173.687 185.229 173.687 187.239Z" fill="#403603"/>
<path d="M169.623 180.435C169.623 181.485 169.332 182.488 168.766 183.387C168.201 184.286 167.371 185.064 166.326 185.676C165.281 186.288 164.04 186.722 162.674 186.954C161.308 187.185 159.845 187.21 158.366 187.026C156.888 186.842 155.424 186.453 154.058 185.881C152.693 185.309 151.452 184.566 150.406 183.693C149.361 182.821 148.532 181.837 147.966 180.796C147.4 179.756 147.109 178.681 147.109 177.631C147.109 176.581 147.4 175.578 147.966 174.679C148.532 173.78 149.361 173.002 150.406 172.39C151.452 171.778 152.693 171.344 154.058 171.113C155.424 170.881 156.888 170.857 158.366 171.041C159.845 171.225 161.308 171.614 162.674 172.186C164.04 172.757 165.281 173.501 166.326 174.373C167.371 175.245 168.201 176.23 168.766 177.27C169.332 178.31 169.623 179.386 169.623 180.435Z" fill="url(#paint4_linear_2_918)"/>
<path d="M143.114 182.672C143.101 182.931 143.058 183.188 143.058 183.453C143.058 191.908 149.912 199.616 158.368 200.668C166.823 201.721 173.678 195.721 173.678 187.266C173.678 187.001 173.634 186.734 173.621 186.471C173.196 194.493 166.549 200.111 158.368 199.092C150.187 198.073 143.54 190.799 143.115 182.671L143.114 182.672Z" fill="url(#paint5_linear_2_918)"/>
<path d="M192.73 16.2529L176.062 15.3799C172.93 15.2158 170.391 17.6221 170.391 20.7545V37.4227C170.391 40.555 172.93 43.2273 176.062 43.3913L192.73 44.2644C195.863 44.4285 198.402 42.0222 198.402 38.8898V22.2217C198.402 19.0893 195.863 16.417 192.73 16.2529Z" fill="#403603"/>
<path d="M193.602 17.1698L175.192 16.2055C173.372 16.1102 171.896 17.8729 171.896 20.1426V20.1428C171.896 22.4126 173.372 24.3298 175.192 24.4252L193.602 25.3894C195.422 25.4848 196.898 23.7221 196.898 21.4523V21.4521C196.898 19.1824 195.422 17.2651 193.602 17.1698Z" fill="url(#paint6_linear_2_918)"/>
<path d="M170.389 35.5948V37.4179C170.389 40.56 172.918 43.2222 176.06 43.3867L192.728 44.2596C195.87 44.4241 198.4 42.0271 198.4 38.8851V37.062C198.4 40.2041 195.87 42.6011 192.728 42.4365L176.06 41.5636C172.918 41.3991 170.389 38.7369 170.389 35.5948Z" fill="url(#paint7_linear_2_918)"/>
<path d="M192.155 8.69539C192.155 9.72901 191.952 10.7419 191.556 11.6761C191.161 12.6103 190.581 13.4476 189.85 14.1402C189.119 14.8328 188.251 15.3671 187.297 15.7127C186.342 16.0582 185.318 16.2082 184.284 16.154C183.251 16.0999 182.227 15.8427 181.272 15.3971C180.317 14.9516 179.45 14.3264 178.719 13.5572C177.988 12.788 177.408 11.89 177.013 10.9143C176.617 9.93869 176.414 8.9045 176.414 7.87088C176.414 6.83726 176.617 5.82443 177.013 4.89021C177.408 3.95599 177.988 3.11867 178.719 2.42608C179.45 1.73348 180.317 1.19917 181.272 0.853637C182.227 0.508105 183.251 0.358118 184.284 0.412256C185.318 0.466394 186.342 0.723597 187.297 1.16916C188.251 1.61473 189.119 2.23993 189.85 3.00909C190.581 3.77825 191.161 4.6763 191.556 5.65196C191.952 6.62761 192.155 7.66177 192.155 8.69539Z" fill="#403603"/>
<path d="M190.07 5.33495C190.07 5.87456 189.92 6.40105 189.629 6.88435C189.338 7.36765 188.912 7.7983 188.375 8.1517C187.837 8.50512 187.199 8.77436 186.497 8.94408C185.795 9.1138 185.042 9.18066 184.282 9.14085C183.522 9.10104 182.77 8.95535 182.068 8.71208C181.365 8.4688 180.727 8.13272 180.19 7.72301C179.653 7.3133 179.226 6.838 178.935 6.32424C178.645 5.81047 178.495 5.26829 178.495 4.72869C178.495 4.18908 178.645 3.6626 178.935 3.17931C179.226 2.69601 179.653 2.26536 180.19 1.91195C180.727 1.55854 181.365 1.28929 182.068 1.11957C182.77 0.949854 183.522 0.882984 184.282 0.922792C185.042 0.9626 185.795 1.10831 186.497 1.35158C187.199 1.59486 187.837 1.93094 188.375 2.34065C188.912 2.75035 189.338 3.22566 189.629 3.73942C189.92 4.25319 190.07 4.79535 190.07 5.33495Z" fill="url(#paint8_linear_2_918)"/>
<path d="M176.437 7.48293C176.43 7.61695 176.408 7.7505 176.408 7.88652C176.408 12.2335 179.932 15.942 184.279 16.1697C188.626 16.3974 192.149 13.0581 192.149 8.7111C192.149 8.57506 192.127 8.43911 192.121 8.30443C191.902 12.4445 188.484 15.5797 184.279 15.3594C180.073 15.1391 176.655 11.6459 176.437 7.48293H176.437Z" fill="url(#paint9_linear_2_918)"/>
<path d="M192.155 8.69539C192.155 9.72901 191.952 10.7419 191.556 11.6761C191.161 12.6103 190.581 13.4476 189.85 14.1402C189.119 14.8328 188.251 15.3671 187.297 15.7127C186.342 16.0582 185.318 16.2082 184.284 16.154C183.251 16.0999 182.227 15.8427 181.272 15.3971C180.317 14.9516 179.45 14.3264 178.719 13.5572C177.988 12.788 177.408 11.89 177.013 10.9143C176.617 9.93869 176.414 8.9045 176.414 7.87088C176.414 6.83726 176.617 5.82443 177.013 4.89021C177.408 3.95599 177.988 3.11867 178.719 2.42608C179.45 1.73348 180.317 1.19917 181.272 0.853637C182.227 0.508105 183.251 0.358118 184.284 0.412256C185.318 0.466394 186.342 0.723597 187.297 1.16916C188.251 1.61473 189.119 2.23993 189.85 3.00909C190.581 3.77825 191.161 4.6763 191.556 5.65196C191.952 6.62761 192.155 7.66177 192.155 8.69539Z" fill="#403603"/>
<path d="M190.07 5.33495C190.07 5.87456 189.92 6.40105 189.629 6.88435C189.338 7.36765 188.912 7.7983 188.375 8.1517C187.837 8.50512 187.199 8.77436 186.497 8.94408C185.795 9.1138 185.042 9.18066 184.282 9.14085C183.522 9.10104 182.77 8.95535 182.068 8.71208C181.365 8.4688 180.727 8.13272 180.19 7.72301C179.653 7.3133 179.226 6.838 178.935 6.32424C178.645 5.81047 178.495 5.26829 178.495 4.72869C178.495 4.18908 178.645 3.6626 178.935 3.17931C179.226 2.69601 179.653 2.26536 180.19 1.91195C180.727 1.55854 181.365 1.28929 182.068 1.11957C182.77 0.949854 183.522 0.882984 184.282 0.922792C185.042 0.9626 185.795 1.10831 186.497 1.35158C187.199 1.59486 187.837 1.93094 188.375 2.34065C188.912 2.75035 189.338 3.22566 189.629 3.73942C189.92 4.25319 190.07 4.79535 190.07 5.33495Z" fill="url(#paint10_linear_2_918)"/>
<path d="M176.437 7.48293C176.43 7.61695 176.408 7.7505 176.408 7.88652C176.408 12.2335 179.932 15.942 184.279 16.1697C188.626 16.3974 192.149 13.0581 192.149 8.7111C192.149 8.57506 192.127 8.43911 192.121 8.30443C191.902 12.4445 188.484 15.5797 184.279 15.3594C180.073 15.1391 176.655 11.6459 176.437 7.48293H176.437Z" fill="url(#paint11_linear_2_918)"/>
<path d="M327.729 105.992L307.511 104.646C303.711 104.393 300.631 107.268 300.631 111.067V131.285C300.631 135.085 303.711 138.37 307.511 138.623L327.729 139.969C331.528 140.222 334.609 137.347 334.609 133.547V113.33C334.609 109.53 331.528 106.245 327.729 105.992Z" fill="#403603"/>
<path d="M328.782 107.117L306.451 105.63C304.243 105.483 302.453 107.596 302.453 110.35C302.453 113.103 304.243 115.454 306.451 115.601L328.782 117.088C330.99 117.235 332.78 115.122 332.78 112.369C332.78 109.615 330.99 107.264 328.782 107.117Z" fill="url(#paint12_linear_2_918)"/>
<path d="M300.628 129.078V131.289C300.628 135.101 303.697 138.374 307.508 138.627L327.726 139.973C331.538 140.227 334.606 137.363 334.606 133.552V131.34C334.606 135.152 331.538 138.016 327.726 137.762L307.508 136.416C303.697 136.162 300.628 132.89 300.628 129.078V129.078Z" fill="url(#paint13_linear_2_918)"/>
<path d="M327.014 96.8022C327.014 98.056 326.767 99.2812 326.287 100.408C325.807 101.534 325.104 102.54 324.217 103.367C323.331 104.195 322.278 104.828 321.12 105.231C319.962 105.633 318.72 105.798 317.466 105.714C316.212 105.631 314.971 105.301 313.813 104.744C312.654 104.187 311.602 103.414 310.715 102.468C309.829 101.523 309.125 100.423 308.645 99.2331C308.166 98.0428 307.919 96.7848 307.919 95.531C307.919 94.2772 308.166 93.0521 308.645 91.9257C309.125 90.7993 309.829 89.7936 310.715 88.966C311.602 88.1385 312.654 87.5053 313.813 87.1026C314.971 86.6999 316.212 86.5356 317.466 86.6191C318.72 86.7026 319.962 87.0322 321.12 87.5891C322.278 88.146 323.331 88.9194 324.217 89.865C325.104 90.8105 325.807 91.9099 326.287 93.1002C326.767 94.2905 327.014 95.5484 327.014 96.8022Z" fill="#403603"/>
<path d="M324.484 92.7174C324.484 93.372 324.302 94.0081 323.949 94.5893C323.597 95.1706 323.08 95.6856 322.428 96.1051C321.776 96.5245 321.002 96.8401 320.15 97.0339C319.298 97.2277 318.386 97.2958 317.464 97.2344C316.542 97.1731 315.629 96.9834 314.777 96.6762C313.925 96.369 313.152 95.9503 312.5 95.4441C311.848 94.9378 311.331 94.3539 310.978 93.7257C310.625 93.0975 310.443 92.4372 310.443 91.7827C310.443 91.1281 310.625 90.4921 310.978 89.9108C311.331 89.3296 311.848 88.8145 312.5 88.3951C313.152 87.9757 313.925 87.66 314.777 87.4662C315.629 87.2725 316.542 87.2043 317.464 87.2657C318.386 87.3271 319.298 87.5168 320.15 87.824C321.002 88.1312 321.776 88.5498 322.428 89.0561C323.08 89.5623 323.597 90.1462 323.949 90.7744C324.302 91.4027 324.484 92.0629 324.484 92.7174Z" fill="url(#paint14_linear_2_918)"/>
<path d="M307.966 95.0689C307.958 95.2312 307.931 95.393 307.931 95.558C307.931 100.831 312.206 105.39 317.479 105.741C322.752 106.092 327.026 102.102 327.026 96.8292C327.026 96.6642 327 96.499 326.991 96.3355C326.726 101.354 322.581 105.098 317.479 104.758C312.377 104.419 308.232 100.122 307.966 95.0689Z" fill="url(#paint15_linear_2_918)"/>
<path d="M327.014 96.8022C327.014 98.056 326.767 99.2812 326.287 100.408C325.807 101.534 325.104 102.54 324.217 103.367C323.331 104.195 322.278 104.828 321.12 105.231C319.962 105.633 318.72 105.798 317.466 105.714C316.212 105.631 314.971 105.301 313.813 104.744C312.654 104.187 311.602 103.414 310.715 102.468C309.829 101.523 309.125 100.423 308.645 99.2331C308.166 98.0428 307.919 96.7848 307.919 95.531C307.919 94.2772 308.166 93.0521 308.645 91.9257C309.125 90.7993 309.829 89.7936 310.715 88.966C311.602 88.1385 312.654 87.5053 313.813 87.1026C314.971 86.6999 316.212 86.5356 317.466 86.6191C318.72 86.7026 319.962 87.0322 321.12 87.5891C322.278 88.146 323.331 88.9194 324.217 89.865C325.104 90.8105 325.807 91.9099 326.287 93.1002C326.767 94.2905 327.014 95.5484 327.014 96.8022Z" fill="#403603"/>
<path d="M324.484 92.7174C324.484 93.372 324.302 94.0081 323.949 94.5893C323.597 95.1706 323.08 95.6856 322.428 96.1051C321.776 96.5245 321.002 96.8401 320.15 97.0339C319.298 97.2277 318.386 97.2958 317.464 97.2344C316.542 97.1731 315.629 96.9834 314.777 96.6762C313.925 96.369 313.152 95.9503 312.5 95.4441C311.848 94.9378 311.331 94.3539 310.978 93.7257C310.625 93.0975 310.443 92.4372 310.443 91.7827C310.443 91.1281 310.625 90.4921 310.978 89.9108C311.331 89.3296 311.848 88.8145 312.5 88.3951C313.152 87.9757 313.925 87.66 314.777 87.4662C315.629 87.2725 316.542 87.2043 317.464 87.2657C318.386 87.3271 319.298 87.5168 320.15 87.824C321.002 88.1312 321.776 88.5498 322.428 89.0561C323.08 89.5623 323.597 90.1462 323.949 90.7744C324.302 91.4027 324.484 92.0629 324.484 92.7174Z" fill="url(#paint16_linear_2_918)"/>
<path d="M307.966 95.0689C307.958 95.2312 307.931 95.393 307.931 95.558C307.931 100.831 312.206 105.39 317.479 105.741C322.752 106.092 327.026 102.102 327.026 96.8292C327.026 96.6642 327 96.499 326.991 96.3355C326.726 101.354 322.581 105.098 317.479 104.758C312.377 104.419 308.232 100.122 307.966 95.0689Z" fill="url(#paint17_linear_2_918)"/>
<path d="M184.905 93.417L164.688 92.071C160.888 91.818 157.808 94.6932 157.808 98.4929V118.71C157.808 122.51 160.888 125.795 164.688 126.048L184.905 127.394C188.705 127.647 191.785 124.772 191.785 120.972V100.755C191.785 96.9553 188.705 93.6699 184.905 93.417Z" fill="#403603"/>
<path d="M185.958 94.5425L163.628 93.0559C161.42 92.9088 159.63 95.0217 159.63 97.775C159.63 100.528 161.42 102.879 163.628 103.026L185.958 104.513C188.166 104.66 189.956 102.547 189.956 99.794C189.956 97.0407 188.166 94.6895 185.958 94.5425Z" fill="url(#paint18_linear_2_918)"/>
<path d="M157.807 116.496V118.708C157.807 122.519 160.875 125.792 164.687 126.046L184.905 127.392C188.716 127.645 191.785 124.781 191.785 120.97V118.758C191.785 122.57 188.716 125.434 184.905 125.18L164.687 123.834C160.875 123.581 157.807 120.308 157.807 116.496Z" fill="url(#paint19_linear_2_918)"/>
<path d="M184.209 84.2205C184.209 85.4743 183.962 86.6994 183.482 87.8258C183.002 88.9523 182.299 89.958 181.413 90.7855C180.526 91.6131 179.474 92.2462 178.315 92.6489C177.157 93.0516 175.915 93.2159 174.661 93.1324C173.408 93.049 172.166 92.7194 171.008 92.1624C169.849 91.6055 168.797 90.8322 167.91 89.8866C167.024 88.941 166.321 87.8417 165.841 86.6514C165.361 85.4611 165.114 84.2031 165.114 82.9493C165.114 81.6955 165.361 80.4704 165.841 79.344C166.321 78.2176 167.024 77.2119 167.91 76.3843C168.797 75.5568 169.849 74.9236 171.008 74.5209C172.166 74.1182 173.408 73.9539 174.661 74.0374C175.915 74.1208 177.157 74.4505 178.315 75.0074C179.474 75.5643 180.526 76.3376 181.413 77.2832C182.299 78.2288 183.002 79.3282 183.482 80.5185C183.962 81.7088 184.209 82.9667 184.209 84.2205Z" fill="#403603"/>
<path d="M181.679 80.1358C181.679 80.7903 181.497 81.4264 181.145 82.0076C180.792 82.5889 180.275 83.1039 179.623 83.5234C178.971 83.9428 178.197 84.2584 177.345 84.4522C176.494 84.646 175.581 84.7141 174.659 84.6528C173.737 84.5914 172.824 84.4017 171.972 84.0945C171.121 83.7873 170.347 83.3686 169.695 82.8624C169.043 82.3561 168.526 81.7722 168.173 81.144C167.82 80.5158 167.639 79.8556 167.639 79.201C167.639 78.5464 167.82 77.9104 168.173 77.3291C168.526 76.7479 169.043 76.2328 169.695 75.8134C170.347 75.394 171.121 75.0783 171.972 74.8846C172.824 74.6908 173.737 74.6226 174.659 74.684C175.581 74.7454 176.494 74.9351 177.345 75.2423C178.197 75.5495 178.971 75.9681 179.623 76.4744C180.275 76.9806 180.792 77.5645 181.145 78.1927C181.497 78.821 181.679 79.4812 181.679 80.1358Z" fill="url(#paint20_linear_2_918)"/>
<path d="M165.145 82.4872C165.137 82.6495 165.11 82.8113 165.11 82.9763C165.11 88.2492 169.384 92.8084 174.657 93.1594C179.93 93.5105 184.205 89.5205 184.205 84.2476C184.205 84.0826 184.178 83.9173 184.17 83.7538C183.905 88.7719 179.759 92.5162 174.657 92.1766C169.556 91.837 165.41 87.5407 165.145 82.4873V82.4872Z" fill="url(#paint21_linear_2_918)"/>
<path d="M184.209 84.2205C184.209 85.4743 183.962 86.6994 183.482 87.8258C183.002 88.9523 182.299 89.958 181.413 90.7855C180.526 91.6131 179.474 92.2462 178.315 92.6489C177.157 93.0516 175.915 93.2159 174.661 93.1324C173.408 93.049 172.166 92.7194 171.008 92.1624C169.849 91.6055 168.797 90.8322 167.91 89.8866C167.024 88.941 166.321 87.8417 165.841 86.6514C165.361 85.4611 165.114 84.2031 165.114 82.9493C165.114 81.6955 165.361 80.4704 165.841 79.344C166.321 78.2176 167.024 77.2119 167.91 76.3843C168.797 75.5568 169.849 74.9236 171.008 74.5209C172.166 74.1182 173.408 73.9539 174.661 74.0374C175.915 74.1208 177.157 74.4505 178.315 75.0074C179.474 75.5643 180.526 76.3376 181.413 77.2832C182.299 78.2288 183.002 79.3282 183.482 80.5185C183.962 81.7088 184.209 82.9667 184.209 84.2205Z" fill="#403603"/>
<path d="M181.679 80.1358C181.679 80.7903 181.497 81.4264 181.145 82.0076C180.792 82.5889 180.275 83.1039 179.623 83.5234C178.971 83.9428 178.197 84.2584 177.345 84.4522C176.494 84.646 175.581 84.7141 174.659 84.6528C173.737 84.5914 172.824 84.4017 171.972 84.0945C171.121 83.7873 170.347 83.3686 169.695 82.8624C169.043 82.3561 168.526 81.7722 168.173 81.144C167.82 80.5158 167.639 79.8556 167.639 79.201C167.639 78.5464 167.82 77.9104 168.173 77.3291C168.526 76.7479 169.043 76.2328 169.695 75.8134C170.347 75.394 171.121 75.0783 171.972 74.8846C172.824 74.6908 173.737 74.6226 174.659 74.684C175.581 74.7454 176.494 74.9351 177.345 75.2423C178.197 75.5495 178.971 75.9681 179.623 76.4744C180.275 76.9806 180.792 77.5645 181.145 78.1927C181.497 78.821 181.679 79.4812 181.679 80.1358Z" fill="url(#paint22_linear_2_918)"/>
<path d="M165.145 82.4872C165.137 82.6495 165.11 82.8113 165.11 82.9763C165.11 88.2492 169.384 92.8084 174.657 93.1594C179.93 93.5105 184.205 89.5205 184.205 84.2476C184.205 84.0826 184.178 83.9173 184.17 83.7538C183.905 88.7719 179.759 92.5162 174.657 92.1766C169.556 91.837 165.41 87.5407 165.145 82.4873V82.4872Z" fill="url(#paint23_linear_2_918)"/>
<path d="M46.192 78.4517L25.1059 77.4296C21.1431 77.2375 17.9305 80.2942 17.9305 84.257V105.345C17.9305 109.307 21.1431 112.676 25.1059 112.868L46.192 113.89C50.1549 114.082 53.3674 111.025 53.3674 107.062V85.9748C53.3674 82.012 50.1549 78.6438 46.192 78.4517Z" fill="#403603"/>
<path d="M47.2814 79.6102L23.9915 78.4812C21.6884 78.3696 19.8214 80.6069 19.8214 83.4785V83.4787C19.8214 86.3502 21.6884 88.7685 23.9915 88.8801L47.2814 90.0091C49.5844 90.1207 51.4514 87.8834 51.4514 85.0119V85.0117C51.4514 82.1402 49.5844 79.7218 47.2814 79.6102Z" fill="url(#paint24_linear_2_918)"/>
<path d="M17.9173 103.043V105.35C17.9173 109.325 21.1175 112.68 25.0927 112.873L46.18 113.895C50.1552 114.088 53.3555 111.043 53.3555 107.068V104.761C53.3555 108.737 50.1552 111.782 46.18 111.589L25.0927 110.567C21.1175 110.374 17.9173 107.019 17.9173 103.043Z" fill="url(#paint25_linear_2_918)"/>
<path d="M45.4612 68.8945C45.4612 70.2021 45.2036 71.4845 44.7032 72.6684C44.2028 73.8523 43.4693 74.9144 42.5447 75.7943C41.62 76.6741 40.5223 77.3543 39.3142 77.7962C38.1061 78.2381 36.8112 78.4328 35.5035 78.3694C34.1959 78.306 32.901 77.9857 31.6929 77.4268C30.4848 76.8678 29.3871 76.0811 28.4624 75.1116C27.5378 74.1421 26.8043 73.0089 26.3039 71.7765C25.8035 70.5441 25.5459 69.2367 25.5459 67.9291C25.5459 66.6214 25.8035 65.3391 26.3039 64.1552C26.8043 62.9713 27.5378 61.9092 28.4624 61.0293C29.3871 60.1495 30.4848 59.4693 31.6929 59.0274C32.901 58.5856 34.1959 58.3907 35.5035 58.4541C36.8112 58.5175 38.1061 58.8379 39.3142 59.3969C40.5223 59.9558 41.62 60.7425 42.5447 61.712C43.4693 62.6815 44.2028 63.8147 44.7032 65.0471C45.2036 66.2795 45.4612 67.5868 45.4612 68.8945Z" fill="#403603"/>
<path d="M42.8119 64.6562C42.8119 65.3389 42.6226 66.0057 42.2546 66.6186C41.8866 67.2314 41.3473 67.7783 40.6674 68.2281C39.9876 68.6779 39.1804 69.0216 38.2921 69.2398C37.4038 69.458 36.4517 69.5463 35.4902 69.4997C34.5287 69.4531 33.5766 69.2725 32.6883 68.9682C31.7999 68.6639 30.9928 68.2418 30.3129 67.7262C29.633 67.2105 29.0937 66.6113 28.7257 65.9627C28.3578 65.3142 28.1684 64.629 28.1684 63.9464C28.1684 63.2637 28.3578 62.5969 28.7257 61.984C29.0937 61.3712 29.633 60.8242 30.3129 60.3745C30.9928 59.9247 31.7999 59.581 32.6883 59.3628C33.5766 59.1446 34.5287 59.0563 35.4902 59.1029C36.4517 59.1495 37.4038 59.3301 38.2921 59.6344C39.1804 59.9387 39.9876 60.3608 40.6674 60.8764C41.3473 61.3921 41.8866 61.9913 42.2546 62.6399C42.6226 63.2884 42.8119 63.9735 42.8119 64.6562Z" fill="url(#paint26_linear_2_918)"/>
<path d="M25.5735 67.426C25.5651 67.5956 25.537 67.7647 25.537 67.9368C25.537 73.4362 29.9952 78.1106 35.4946 78.3771C40.9941 78.6437 45.4523 74.4016 45.4523 68.9022C45.4523 68.7301 45.4243 68.5582 45.4158 68.3878C45.1393 73.6266 40.8156 77.61 35.4948 77.352C30.1738 77.0941 25.8503 72.6916 25.5738 67.426H25.5735Z" fill="url(#paint27_linear_2_918)"/>
<path d="M45.4612 68.8945C45.4612 70.2021 45.2036 71.4845 44.7032 72.6684C44.2028 73.8523 43.4693 74.9144 42.5447 75.7943C41.62 76.6741 40.5223 77.3543 39.3142 77.7962C38.1061 78.2381 36.8112 78.4328 35.5035 78.3694C34.1959 78.306 32.901 77.9857 31.6929 77.4268C30.4848 76.8678 29.3871 76.0811 28.4624 75.1116C27.5378 74.1421 26.8043 73.0089 26.3039 71.7765C25.8035 70.5441 25.5459 69.2367 25.5459 67.9291C25.5459 66.6214 25.8035 65.3391 26.3039 64.1552C26.8043 62.9713 27.5378 61.9092 28.4624 61.0293C29.3871 60.1495 30.4848 59.4693 31.6929 59.0274C32.901 58.5856 34.1959 58.3907 35.5035 58.4541C36.8112 58.5175 38.1061 58.8379 39.3142 59.3969C40.5223 59.9558 41.62 60.7425 42.5447 61.712C43.4693 62.6815 44.2028 63.8147 44.7032 65.0471C45.2036 66.2795 45.4612 67.5868 45.4612 68.8945Z" fill="#403603"/>
<path d="M42.8119 64.6562C42.8119 65.3389 42.6226 66.0057 42.2546 66.6186C41.8866 67.2314 41.3473 67.7783 40.6674 68.2281C39.9876 68.6779 39.1804 69.0216 38.2921 69.2398C37.4038 69.458 36.4517 69.5463 35.4902 69.4997C34.5287 69.4531 33.5766 69.2725 32.6883 68.9682C31.7999 68.6639 30.9928 68.2418 30.3129 67.7262C29.633 67.2105 29.0937 66.6113 28.7257 65.9627C28.3578 65.3142 28.1684 64.629 28.1684 63.9464C28.1684 63.2637 28.3578 62.5969 28.7257 61.984C29.0937 61.3712 29.633 60.8242 30.3129 60.3745C30.9928 59.9247 31.7999 59.581 32.6883 59.3628C33.5766 59.1446 34.5287 59.0563 35.4902 59.1029C36.4517 59.1495 37.4038 59.3301 38.2921 59.6344C39.1804 59.9387 39.9876 60.3608 40.6674 60.8764C41.3473 61.3921 41.8866 61.9913 42.2546 62.6399C42.6226 63.2884 42.8119 63.9735 42.8119 64.6562Z" fill="url(#paint28_linear_2_918)"/>
<path d="M25.5735 67.426C25.5651 67.5956 25.537 67.7647 25.537 67.9368C25.537 73.4362 29.9952 78.1106 35.4946 78.3771C40.9941 78.6437 45.4523 74.4016 45.4523 68.9022C45.4523 68.7301 45.4243 68.5582 45.4158 68.3878C45.1393 73.6266 40.8156 77.61 35.4948 77.352C30.1738 77.0941 25.8503 72.6916 25.5738 67.426H25.5735Z" fill="url(#paint29_linear_2_918)"/>
<defs>
<linearGradient id="paint0_linear_2_918" x1="160.503" y1="121.17" x2="148.549" y2="217.142" gradientUnits="userSpaceOnUse">
<stop stop-color="white"/>
<stop offset="1" stop-color="white" stop-opacity="0"/>
</linearGradient>
<linearGradient id="paint1_linear_2_918" x1="77.7264" y1="250.409" x2="80.1786" y2="230.721" gradientUnits="userSpaceOnUse">
<stop stop-color="#2D404C"/>
<stop offset="1" stop-color="#2D404C" stop-opacity="0"/>
</linearGradient>
<linearGradient id="paint2_linear_2_918" x1="160.618" y1="139.661" x2="155.01" y2="184.68" gradientUnits="userSpaceOnUse">
<stop stop-color="white"/>
<stop offset="1" stop-color="white" stop-opacity="0"/>
</linearGradient>
<linearGradient id="paint3_linear_2_918" x1="159.566" y1="207.436" x2="162.018" y2="187.749" gradientUnits="userSpaceOnUse">
<stop stop-color="#2D404C"/>
<stop offset="1" stop-color="#2D404C" stop-opacity="0"/>
</linearGradient>
<linearGradient id="paint4_linear_2_918" x1="160.618" y1="139.661" x2="155.01" y2="184.68" gradientUnits="userSpaceOnUse">
<stop stop-color="white"/>
<stop offset="1" stop-color="white" stop-opacity="0"/>
</linearGradient>
<linearGradient id="paint5_linear_2_918" x1="159.566" y1="207.436" x2="162.018" y2="187.749" gradientUnits="userSpaceOnUse">
<stop stop-color="#2D404C"/>
<stop offset="1" stop-color="#2D404C" stop-opacity="0"/>
</linearGradient>
<linearGradient id="paint6_linear_2_918" x1="185.378" y1="-24.8093" x2="182.761" y2="25.1579" gradientUnits="userSpaceOnUse">
<stop stop-color="white"/>
<stop offset="1" stop-color="white" stop-opacity="0"/>
</linearGradient>
<linearGradient id="paint7_linear_2_918" x1="142.828" y1="44.7328" x2="143.365" y2="34.4825" gradientUnits="userSpaceOnUse">
<stop stop-color="#2D404C"/>
<stop offset="1" stop-color="#2D404C" stop-opacity="0"/>
</linearGradient>
<linearGradient id="paint8_linear_2_918" x1="185.44" y1="-15.2932" x2="184.212" y2="8.14617" gradientUnits="userSpaceOnUse">
<stop stop-color="white"/>
<stop offset="1" stop-color="white" stop-opacity="0"/>
</linearGradient>
<linearGradient id="paint9_linear_2_918" x1="184.896" y1="19.603" x2="185.433" y2="9.35268" gradientUnits="userSpaceOnUse">
<stop stop-color="#2D404C"/>
<stop offset="1" stop-color="#2D404C" stop-opacity="0"/>
</linearGradient>
<linearGradient id="paint10_linear_2_918" x1="185.44" y1="-15.2932" x2="184.212" y2="8.14617" gradientUnits="userSpaceOnUse">
<stop stop-color="white"/>
<stop offset="1" stop-color="white" stop-opacity="0"/>
</linearGradient>
<linearGradient id="paint11_linear_2_918" x1="184.896" y1="19.603" x2="185.433" y2="9.35268" gradientUnits="userSpaceOnUse">
<stop stop-color="#2D404C"/>
<stop offset="1" stop-color="#2D404C" stop-opacity="0"/>
</linearGradient>
<linearGradient id="paint12_linear_2_918" x1="318.803" y1="56.0589" x2="314.775" y2="116.568" gradientUnits="userSpaceOnUse">
<stop stop-color="white"/>
<stop offset="1" stop-color="white" stop-opacity="0"/>
</linearGradient>
<linearGradient id="paint13_linear_2_918" x1="267.177" y1="139.662" x2="268.004" y2="127.249" gradientUnits="userSpaceOnUse">
<stop stop-color="#2D404C"/>
<stop offset="1" stop-color="#2D404C" stop-opacity="0"/>
</linearGradient>
<linearGradient id="paint14_linear_2_918" x1="318.868" y1="67.6152" x2="316.978" y2="96" gradientUnits="userSpaceOnUse">
<stop stop-color="white"/>
<stop offset="1" stop-color="white" stop-opacity="0"/>
</linearGradient>
<linearGradient id="paint15_linear_2_918" x1="318.208" y1="109.908" x2="319.034" y2="97.4953" gradientUnits="userSpaceOnUse">
<stop stop-color="#2D404C"/>
<stop offset="1" stop-color="#2D404C" stop-opacity="0"/>
</linearGradient>
<linearGradient id="paint16_linear_2_918" x1="318.868" y1="67.6152" x2="316.978" y2="96" gradientUnits="userSpaceOnUse">
<stop stop-color="white"/>
<stop offset="1" stop-color="white" stop-opacity="0"/>
</linearGradient>
<linearGradient id="paint17_linear_2_918" x1="318.208" y1="109.908" x2="319.034" y2="97.4953" gradientUnits="userSpaceOnUse">
<stop stop-color="#2D404C"/>
<stop offset="1" stop-color="#2D404C" stop-opacity="0"/>
</linearGradient>
<linearGradient id="paint18_linear_2_918" x1="175.98" y1="43.4844" x2="171.952" y2="103.994" gradientUnits="userSpaceOnUse">
<stop stop-color="white"/>
<stop offset="1" stop-color="white" stop-opacity="0"/>
</linearGradient>
<linearGradient id="paint19_linear_2_918" x1="124.356" y1="127.097" x2="125.182" y2="114.684" gradientUnits="userSpaceOnUse">
<stop stop-color="#2D404C"/>
<stop offset="1" stop-color="#2D404C" stop-opacity="0"/>
</linearGradient>
<linearGradient id="paint20_linear_2_918" x1="176.063" y1="55.0335" x2="174.173" y2="83.4183" gradientUnits="userSpaceOnUse">
<stop stop-color="white"/>
<stop offset="1" stop-color="white" stop-opacity="0"/>
</linearGradient>
<linearGradient id="paint21_linear_2_918" x1="175.403" y1="97.3266" x2="176.229" y2="84.9136" gradientUnits="userSpaceOnUse">
<stop stop-color="#2D404C"/>
<stop offset="1" stop-color="#2D404C" stop-opacity="0"/>
</linearGradient>
<linearGradient id="paint22_linear_2_918" x1="176.063" y1="55.0335" x2="174.173" y2="83.4183" gradientUnits="userSpaceOnUse">
<stop stop-color="white"/>
<stop offset="1" stop-color="white" stop-opacity="0"/>
</linearGradient>
<linearGradient id="paint23_linear_2_918" x1="175.403" y1="97.3266" x2="176.229" y2="84.9136" gradientUnits="userSpaceOnUse">
<stop stop-color="#2D404C"/>
<stop offset="1" stop-color="#2D404C" stop-opacity="0"/>
</linearGradient>
<linearGradient id="paint24_linear_2_918" x1="36.8738" y1="26.5545" x2="33.8083" y2="89.7936" gradientUnits="userSpaceOnUse">
<stop stop-color="white"/>
<stop offset="1" stop-color="white" stop-opacity="0"/>
</linearGradient>
<linearGradient id="paint25_linear_2_918" x1="-16.9651" y1="114.728" x2="-16.3363" y2="101.755" gradientUnits="userSpaceOnUse">
<stop stop-color="#2D404C"/>
<stop offset="1" stop-color="#2D404C" stop-opacity="0"/>
</linearGradient>
<linearGradient id="paint26_linear_2_918" x1="36.9545" y1="38.582" x2="35.5165" y2="68.2472" gradientUnits="userSpaceOnUse">
<stop stop-color="white"/>
<stop offset="1" stop-color="white" stop-opacity="0"/>
</linearGradient>
<linearGradient id="paint27_linear_2_918" x1="36.2768" y1="82.7297" x2="36.9056" y2="69.7567" gradientUnits="userSpaceOnUse">
<stop stop-color="#FFD700"/>
<stop offset="1" stop-color="#2D404C" stop-opacity="0"/>
</linearGradient>
<linearGradient id="paint28_linear_2_918" x1="36.9545" y1="38.582" x2="35.5165" y2="68.2472" gradientUnits="userSpaceOnUse">
<stop stop-color="white"/>
<stop offset="1" stop-color="white" stop-opacity="0"/>
</linearGradient>
<linearGradient id="paint29_linear_2_918" x1="36.2768" y1="82.7297" x2="36.9056" y2="69.7567" gradientUnits="userSpaceOnUse">
<stop stop-color="#FFD700"/>
<stop offset="1" stop-color="#2D404C" stop-opacity="0"/>
</linearGradient>
</defs>
</svg>
